<svg t="1754445735514" class="icon" viewBox="0 0 1024 1024" version="1.1" xmlns="http://www.w3.org/2000/svg" p-id="6238"
     width="200" height="200">
    <path d="M512 1024a512 512 0 1 1 512-512 512 512 0 0 1-512 512z m0-930.909091a418.909091 418.909091 0 1 0 418.909091 418.909091A418.909091 418.909091 0 0 0 512 93.090909z m138.914909 575.301818L488.727273 575.650909a46.056727 46.056727 0 0 1-21.666909-52.037818A46.545455 46.545455 0 0 1 465.454545 512V232.727273a46.545455 46.545455 0 0 1 93.09091 0v275.781818l139.170909 79.569454a46.126545 46.126545 0 0 1 17.128727 63.348364 47.057455 47.057455 0 0 1-63.930182 16.965818zM208.081455 390.423273l-44.334546-14.592a373.061818 373.061818 0 0 1 250.205091-218.251637l14.778182 43.915637a326.656 326.656 0 0 0-220.648727 188.928z"
          fill="#333333" p-id="6239"></path>
</svg>