<svg t="1754028777783" class="icon" viewBox="0 0 1024 1024" version="1.1" xmlns="http://www.w3.org/2000/svg" p-id="4512"
     width="200" height="200">
    <path d="M512 63.936c-247.04 0-448 201.024-448 448 0 247.04 200.96 448 448 448 246.976-0.064 448-201.024 448-448C960 264.96 758.976 64 512 63.936zM896 511.936c0 212.096-171.968 384.064-384 384-212.032 0-384-171.968-384-384 0-212.032 171.968-384 384-384C724.032 127.936 896 299.904 896 511.936zM480 256 480 480 256 480 256 544 480 544 480 767.936 544 767.936 544 544 767.936 544 767.936 480 544 480 544 256Z"
          fill="#272636" p-id="4513"></path>
</svg>