<svg t="1754445795250" class="icon" viewBox="0 0 1024 1024" version="1.1" xmlns="http://www.w3.org/2000/svg" p-id="7268"
     width="200" height="200">
    <path d="M88 276a32 32 0 0 1 32-32h784a32 32 0 0 1 32 32v536a96 96 0 0 1-96 96h-656a96 96 0 0 1-96-96v-536z m64 32v504a32 32 0 0 0 32 32h656a32 32 0 0 0 32-32v-504h-720z"
          fill="#000000" p-id="7269"></path>
    <path d="M155.808 152.224a98.048 98.048 0 0 1 84.48-48.224h543.424a98.048 98.048 0 0 1 84.48 48.224l-27.568 16.256 27.568-16.256 63.36 107.52A32 32 0 0 1 904 308h-784a32 32 0 0 1-27.568-48.256l63.376-107.52z m84.48 15.776c-12.096 0-23.248 6.384-29.344 16.736l-34.928 59.264h671.968l-34.928-59.264a34.048 34.048 0 0 0-29.344-16.736H240.288zM512 436a136 136 0 1 0 0 272 136 136 0 0 0 0-272z m-200 136c0-110.464 89.536-200 200-200s200 89.536 200 200-89.536 200-200 200-200-89.536-200-200z"
          fill="#000000" p-id="7270"></path>
    <path d="M512 468a32 32 0 0 1 32 32v72a32 32 0 1 1-64 0v-72a32 32 0 0 1 32-32z" fill="#000000" p-id="7271"></path>
    <path d="M616 572a32 32 0 0 1-32 32H512a32 32 0 1 1 0-64h72a32 32 0 0 1 32 32z" fill="#000000" p-id="7272"></path>
</svg>