<svg t="1754096776207" class="icon" viewBox="0 0 1024 1024" version="1.1" xmlns="http://www.w3.org/2000/svg" p-id="2423"
     width="200" height="200">
    <path d="M978.489 471.04c20.48-22.756 29.582-54.613 18.204-84.196-9.102-29.582-34.133-50.062-61.44-52.337l-220.729-34.134c-9.102-2.275-15.928-6.826-20.48-15.929L593.92 75.094c-13.653-27.307-40.96-45.512-70.542-45.512s-56.89 15.93-70.542 45.511l-97.85 209.351c-4.55 9.103-11.377 15.93-20.48 15.93l-220.728 34.133c-29.582 4.55-52.338 25.03-61.44 52.337-9.102 29.583-2.276 61.44 18.204 84.196l161.565 163.84c6.826 6.827 9.102 15.929 6.826 27.307l-38.684 229.83c-4.551 31.859 6.827 61.44 34.133 79.645 25.031 15.93 54.614 18.205 81.92 4.551l197.974-109.226c6.826-4.551 15.928-4.551 22.755 0l197.973 109.226c11.378 6.827 25.032 9.103 36.41 9.103 15.928 0 31.857-4.552 45.51-13.654 25.032-18.204 38.685-47.786 31.858-79.644L810.098 659.91c-2.276-9.102 2.275-20.48 9.102-27.307L978.489 471.04z"
          p-id="2424" fill="#ffe60f"></path>
</svg>