<svg t="1753185036016" class="icon" viewBox="0 0 1024 1024" version="1.1" xmlns="http://www.w3.org/2000/svg"
     p-id="14318" width="200" height="200">
    <path d="M511.907953 1023.928119H170.550831c-51.568848 0-96.691589-43.83352-96.691589-93.826654 0-114.597439 119.03809-283.628662 240.224881-341.213875a29.795334 29.795334 0 1 1 25.497931 53.71755c-109.154061 51.855341-206.27539 203.983442-206.275391 287.496325 0 17.332863 18.478837 34.379232 37.244168 34.379232h341.357122a29.795334 29.795334 0 1 1 0 59.447422z m0 0"
          p-id="14319" fill="#2c2c2c"></path>
    <path d="M853.265075 1023.928119H511.907953a29.795334 29.795334 0 1 1 0-59.447422h341.357122c18.765331 0 37.244168-17.046369 37.244167-34.379232 0-83.512884-97.12133-235.640984-206.27539-287.496325a29.795334 29.795334 0 0 1 25.49793-53.71755c121.186792 57.72846 240.224882 226.759683 240.224882 341.213875 0 49.993133-45.265988 93.826653-96.691589 93.826654z m0 0M516.348604 584.733433c-161.152649 0-292.366717-131.214068-292.366717-292.366716S355.195955 0 516.348604 0 808.71532 131.214068 808.71532 292.366717s-131.214068 292.366717-292.366716 292.366716z m0-525.142765c-128.349132 0-232.919295 104.426916-232.919296 232.919295s104.426916 232.919295 232.919296 232.919295 232.919295-104.426916 232.919295-232.919295-104.570163-232.919295-232.919295-232.919295z m0 0"
          p-id="14320" fill="#2c2c2c"></path>
    <path d="M348.749849 307.264384a14.897667 14.897667 0 0 1-14.897667-14.897667A182.639669 182.639669 0 0 1 516.348604 110.013542a14.897667 14.897667 0 1 1 0 29.795334 152.844334 152.844334 0 0 0-152.701088 152.557841 14.897667 14.897667 0 0 1-14.897667 14.897667z m0 0M379.691157 352.530372a15.040914 15.040914 0 1 1-15.040914-15.040914 15.040914 15.040914 0 0 1 15.040914 15.040914z m0 0"
          p-id="14321" fill="#2c2c2c"></path>
</svg>