<svg t="1753184821761" class="icon" viewBox="0 0 1024 1024" version="1.1" xmlns="http://www.w3.org/2000/svg"
     p-id="11370" width="200" height="200">
    <path d="M926.76075938 557.13844053s-9.81583826 3.3274028-11.31316953 3.3274028h-71.09550655v312.77586347A78.19396587 78.19396587 0 0 1 766.15811743 951.49112938H570.67320276v-215.06113451a39.09698294 39.09698294 0 0 0-39.09698294-39.09698291h-39.15243964a39.09698294 39.09698294 0 0 0-39.09698294 39.09698291V951.49112938H257.84188257a78.19396587 78.19396587 0 0 1-78.19396587-78.19396585V560.52130003H104.00495965l-3.16103267-0.55456712C99.79024943 559.41216578 97.1837839 557.08298382 97.1837839 557.08298382a78.19396587 78.19396587 0 0 1 0-110.63614321L456.70965676 87.0873379a78.19396587 78.19396587 0 0 1 110.58068648 0l359.47041614 359.41495939c30.50119236 30.55664907 30.50119236 80.07949412 0 110.63614323z m-41.48162161-82.96324325L539.67289998 128.51350278a39.09698294 39.09698294 0 0 0-55.34579996 0L138.77631894 474.17519728a38.5424158 38.5424158 0 0 0-5.37930119 47.19366308h85.4033386v351.92830317c0 21.62811822 17.52432144 39.09698294 39.09698294 39.09698291h156.38793173v-175.96415157c0-43.20077973 35.04864286-78.19396587 78.19396587-78.19396584h39.15243965c43.14532301 0 78.19396587 34.99318614 78.19396587 78.19396584v175.96415157h156.38793173c21.62811822 0 39.09698294-17.52432144 39.09698294-39.09698291V521.36886036h85.40333861a38.5424158 38.5424158 0 0 0-5.3793012-47.19366308z m-236.41196914-124.72214837l-13.86417835-13.86417833a9.76038155 9.76038155 0 1 1 13.86417835-13.75326494l13.86417835 13.80872163a9.76038155 9.76038155 0 1 1-13.86417835 13.86417833zM526.64057233 231.3857061a20.46352724 20.46352724 0 0 0-29.0038611 0S348.67997908 380.56426513 324.99996248 404.13336831c-11.81227995 11.64590981-19.79804667 14.41874547-25.6764583 5.87841161-2.93920581-4.21471022 4.82473407-12.75504408 4.82473406-12.7550441l180.34523192-180.23431847a39.09698294 39.09698294 0 0 1 55.29034324 0l69.87545887 69.82000213h-27.72835669l-55.29034325-55.40125665z"
          fill="#2c2c2c" p-id="11371"></path>
    <path d="M598.3645883 283.94018484l-14.78845689-14.78845693a10.41107366 10.41107366 0 1 1 14.78845689-14.72930308l14.72930309 14.78845693a10.41107366 10.41107366 0 1 1-14.7884569 14.72930308z"
          fill="#2c2c2c" p-id="11372"></path>
    <path d="M287.4520704 406.50691564a10.41107366 10.41107366 0 0 1 0-14.78845693l14.7884569-14.67014922a10.41107366 10.41107366 0 1 1 14.72930307 14.72930305l-14.7884569 14.7293031a10.41107366 10.41107366 0 0 1-14.72930307 0z"
          fill="#2c2c2c" p-id="11373"></path>
</svg>