<svg t="1753184984230" class="icon" viewBox="0 0 1024 1024" version="1.1" xmlns="http://www.w3.org/2000/svg"
     p-id="12422" width="200" height="200">
    <path d="M568.317588 810.663303l-287.528689 205.396063a42.666805 42.666805 0 0 1-67.456692-34.729841v-57.386739a42.666805 42.666805 0 0 1 79.573637-21.418902l236.968919-169.258228a42.495806 42.495806 0 0 1 27.733874-7.935964H895.996094c23.722892 0 42.709805-18.985913 42.709805-42.665805V127.999416c0-23.722892-18.859914-42.666805-42.282807-42.666805H127.572598A42.452806 42.452806 0 0 0 85.332791 127.999416v554.664471c0 23.721892 18.943914 42.665805 42.538806 42.665805h106.794513a42.666805 42.666805 0 0 1 0 85.333611H127.871597A127.786417 127.786417 0 0 1 0.00018 682.663887V127.999416C0.00018 57.343738 57.04492 0 127.615598 0h768.806494A127.658418 127.658418 0 0 1 1023.99551 127.999416v554.664471c0 70.740677-57.172739 127.999416-127.999416 127.999416H568.317588z m-312.318575-319.998541A85.332611 85.332611 0 1 1 255.999013 319.998541a85.332611 85.332611 0 0 1 0 170.666221z m511.997665 0A85.332611 85.332611 0 1 1 767.996678 319.998541a85.332611 85.332611 0 0 1 0 170.666221z m-255.998833 0A85.332611 85.332611 0 1 1 511.997845 319.998541a85.332611 85.332611 0 0 1 0 170.666221z"
          p-id="12423" fill="#2c2c2c"></path>
</svg>